<?xml version="1.0" encoding="UTF-8" standalone="no"?>
<svg
   xmlns:dc="http://purl.org/dc/elements/1.1/"
   xmlns:cc="http://creativecommons.org/ns#"
   xmlns:rdf="http://www.w3.org/1999/02/22-rdf-syntax-ns#"
   xmlns:svg="http://www.w3.org/2000/svg"
   xmlns="http://www.w3.org/2000/svg"
   xmlns:sodipodi="http://sodipodi.sourceforge.net/DTD/sodipodi-0.dtd"
   xmlns:inkscape="http://www.inkscape.org/namespaces/inkscape"
   id="svg8526"
   viewBox="0 0 220.18 230.24"
   version="1.1"
   inkscape:version="0.48.4 r9939"
   width="100%"
   height="100%"
   sodipodi:docname="Bomb-colour-change-blue.svg"
   inkscape:export-filename="G:\Sparkle Pop!\Pictures\Bomb-colour-change-blue.png"
   inkscape:export-xdpi="50.799419"
   inkscape:export-ydpi="50.799419">
  <defs
     id="defs3099" />
  <sodipodi:namedview
     pagecolor="#ffffff"
     bordercolor="#666666"
     borderopacity="1"
     objecttolerance="10"
     gridtolerance="10"
     guidetolerance="10"
     inkscape:pageopacity="0"
     inkscape:pageshadow="2"
     inkscape:window-width="1440"
     inkscape:window-height="844"
     id="namedview3097"
     showgrid="false"
     inkscape:zoom="2.1023387"
     inkscape:cx="39.150688"
     inkscape:cy="90.812269"
     inkscape:window-x="-4"
     inkscape:window-y="-4"
     inkscape:window-maximized="1"
     inkscape:current-layer="svg8526"
     fit-margin-top="0"
     fit-margin-left="0"
     fit-margin-right="0"
     fit-margin-bottom="0" />
  <g
     id="g3057"
     transform="translate(2.9980464,-2.4989425)">
    <path
       id="path26649"
       style="color:#000000;fill-rule:evenodd;stroke:#000000;stroke-width:9.12440014"
       d="m 202.51904,10.89179 -6.2869,1.7963 c -0.0862,-0.007 -0.30896,0.004 -0.44547,0 -5.8458,-0.17388 -11.757,0.39302 -17.738,1.7963 -11.818,2.7726 -23.124,9.4807 -32.783,20.657 -11.496,-4.4723 -22.335,-3.7541 -26.046,2.4699 l -3.5925,6.0624 c -36.885997,-7.6032 -76.173997,8.2651 -96.548997,42.437 -25.7349997,43.159 -11.4999997,98.882 31.659,124.62 43.159,25.734 98.881997,11.725 124.619997,-31.435 20.391,-34.199 15.745,-76.244 -8.533,-105.08 l 3.5925,-6.0624 c 3.3856,-5.6716 -0.0862,-14.443 -7.8583,-22.004 6.2762,-6.6475 12.884,-10.235 19.984,-11.9 4.1113,-0.96474 8.5394,-1.1474 13.022,-0.89813 l 6.7367,3.1435 1.1223,-4.9397 3.8167,-2.4699 -4.0409,-6.0624 4.939,-6.5115 -5.1639,-0.89813 -0.44548,-4.7152 z"
       inkscape:connector-curvature="0" />
    <path
       id="path26367"
       d="M 175.46236,179.29891 A 90.986895,90.986895 0 1 1 19.167778,86.106526 90.986895,90.986895 0 1 1 175.46236,179.29891 z"
       inkscape:connector-curvature="0"
       style="fill:#00ffff;fill-opacity:1;fill-rule:evenodd;stroke:#000000;stroke-width:12;stroke-miterlimit:4;stroke-dasharray:none" />
    <path
       id="path26369"
       style="color:#000000;fill:#ffffff;fill-opacity:1;fill-rule:evenodd;stroke:#000000;stroke-width:4.55530024"
       d="m 153.11904,38.95179 c -14.131,-8.4258 -29.279,-8.9471 -33.834,-1.3083 l -8.893,14.843 c -4.5582,7.6366 3.178,20.597 17.31,29.023 14.132,8.4262 29.329,9.1408 33.883,1.5015 l 8.893,-14.843 c 4.5582,-7.6367 -3.2261,-20.79 -17.358,-29.216 z"
       inkscape:connector-curvature="0" />
    <path
       id="path26377"
       d="m 153.11904,38.95179 c -14.131,-8.4258 -29.279,-8.9471 -33.834,-1.3083 l -8.893,14.843 c -4.5582,7.6366 3.178,20.597 17.31,29.023 14.132,8.4262 29.329,9.1408 33.883,1.5015 l 8.893,-14.843 c 4.5582,-7.6367 -3.2261,-20.79 -17.358,-29.216 z"
       inkscape:connector-curvature="0"
       style="fill:#00ffff;stroke:#000000;stroke-width:12;stroke-miterlimit:4;stroke-dasharray:none" />
    <path
       id="path26371"
       style="color:#000000;fill-opacity:0.48936002;fill-rule:evenodd"
       d="m 120.69904,35.11179 -8.0825,13.697 c -0.74796,0.0287 -1.5541,-0.11712 -2.254,-0.0287 -4.597,0.56259 -8.1558,2.3163 -10.078,5.2132 -5.130097,7.7216 3.6364,20.894 19.597,29.446 13.962,7.4828 28.813,8.9549 35.736,4.0259 -3.6536,1.1893 -8.4798,1.0132 -13.667,-0.19256 0,-0.0431 -0.0718,-0.0992 0,-0.15017 l 8.9828,-17.489 c -2.5909,-0.68617 -5.3018,-1.7159 -7.9905,-2.9306 l -8.1356,17.36 -10.221,-4.6536 8.8513,-18.195 c -11.155,-8.2856 -16.77,-19.343 -12.738,-26.108 z m -73.236997,27.153 c -9.559,6.7521 -17.945,15.592 -24.326,26.291 -24.3979997,40.924 -11.02,93.827 29.903,118.23 23.975,14.295 52.079997,15.447 76.153997,5.8624 -14.147,-1.7046 -28.206,-6.1995 -41.233997,-13.967 -47.33,-28.221 -64.302,-87.79 -40.497,-136.42 z"
       inkscape:connector-curvature="0" />
    <path
       id="path26379"
       d="m 182.53904,34.24179 c -10.479,2.4584 -19.946,8.6752 -28.74,23.576 l -0.6754,0.89813 c -1.978,1.9218 -6.8265,1.4987 -11.227,-1.1227 -4.4806,-2.6713 -6.9709,-6.5659 -6.062,-9.2059 0.25148,-0.42823 0.89813,-1.5717 0.89813,-1.5717 11.069,-18.362 25.835,-28.701 41.314,-32.333 5.9808,-1.4032 11.892,-1.9701 17.738,-1.7963 0.1437,0.004 0.29458,-0.006 0.38081,0.002 l 6.2646,-1.6906 0.56043,4.563 5.1934,1.0306 -5.0166,6.5142 4.135,6.0209 -3.9956,2.4776 -1.123,4.9277 -6.6368,-3.1139 c -4.4828,-0.24932 -8.8994,-0.14083 -13.011,0.82391 z"
       inkscape:connector-curvature="0"
       style="fill:#00ffff;fill-opacity:1;fill-rule:evenodd;stroke:#000000;stroke-width:12;stroke-miterlimit:4;stroke-dasharray:none" />
    <path
       id="path26383"
       style="color:#000000;fill:none;stroke:#000000;stroke-width:2.28110003;stroke-linecap:round;stroke-opacity:0.68616997"
       d="m 144.84904,36.30179 c -0.28021,12.349 5.4441,19.469 8.9813,20.208"
       inkscape:connector-curvature="0" />
    <path
       id="path26385"
       style="color:#000000;fill:none;stroke:#000000;stroke-width:2.28110003;stroke-linecap:round;stroke-opacity:0.68616997"
       d="m 155.49904,26.96179 c -1.8782,12.208 2.8747,20.011 6.2869,21.202"
       inkscape:connector-curvature="0" />
    <path
       id="path26387"
       style="color:#000000;fill:none;stroke:#000000;stroke-width:2.28110003;stroke-linecap:round;stroke-opacity:0.68616997"
       d="m 167.79904,18.43179 c -4.199,11.616 -1.0411,20.189 2.0772,22.016"
       inkscape:connector-curvature="0" />
    <path
       id="path26389"
       style="color:#000000;fill:none;stroke:#000000;stroke-width:2.28110003;stroke-linecap:round;stroke-opacity:0.68616997"
       d="m 181.20904,13.68179 c -6.3013,10.624 -4.8054,19.637 -2.088,22.015"
       inkscape:connector-curvature="0" />
    <path
       id="path26391"
       style="text-indent:0;text-transform:none;block-progression:tb;color:#000000;fill-opacity:0.68627002"
       d="m 202.51904,10.89179 -6.0628,1.7963 a 1.1407,1.1407 0 0 0 0,-0.22418 1.1407,1.1407 0 0 0 0,-0.22417 1.1407,1.1407 0 0 0 0,-0.22417 1.1407,1.1407 0 0 0 -0.22273,-0.22418 1.1407,1.1407 0 0 0 -0.22274,-0.22417 1.1407,1.1407 0 0 0 -0.22274,-0.22417 1.1407,1.1407 0 0 0 -0.22273,0 1.1407,1.1407 0 0 0 -0.22274,0 1.1407,1.1407 0 0 0 -0.22274,0 1.1407,1.1407 0 0 0 -0.22273,0.22417 1.1407,1.1407 0 0 0 -0.22274,0 1.1407,1.1407 0 0 0 -0.22274,0.22417 c -0.26584,0.29603 -0.42392,0.60283 -0.67539,0.89814 -1.1949,0.0503 -2.3826,0.16094 -3.5925,0.22417 l 0.67539,1.7963 c -0.98435,0.0877 -1.6411,0.47781 -2.4702,0.89814 -3.2807,1.6652 0.59636,1.2225 1.123,2.2453 0.10059,0.14514 -2.6017,1.0592 -2.6944,1.3472 -0.28741,0.87162 0.91178,2.5723 0.67539,3.368 -0.30177,0.93995 -2.213,1.2355 -2.4695,2.0208 -0.25867,0.80006 0.89454,1.8078 2.0212,2.6944 -0.38799,3.0948 -0.10059,5.6 1.1223,7.1851 a 1.1407,1.1407 0 0 0 0.22274,0.22417 1.1407,1.1407 0 0 0 0.22273,0 1.1407,1.1407 0 0 0 0.22274,0.22418 1.1407,1.1407 0 0 0 0.22274,0 1.1407,1.1407 0 0 0 0.22274,0 1.1407,1.1407 0 0 0 0.22273,-0.22418 1.1407,1.1407 0 0 0 0.22274,0 1.1407,1.1407 0 0 0 0.22274,-0.22417 1.1407,1.1407 0 0 0 0.22273,-0.22417 1.1407,1.1407 0 0 0 0,-0.22418 1.1407,1.1407 0 0 0 0,-0.22417 1.1407,1.1407 0 0 0 0,-0.22417 1.1407,1.1407 0 0 0 0,-0.22418 1.1407,1.1407 0 0 0 -0.22273,-0.22417 c -0.28741,-0.37075 -0.52451,-1.1307 -0.6754,-2.0208 0.56762,0.19256 2.3538,0.89569 2.4702,1.1227 0.21556,0.42249 0.46703,0.7142 0.6754,1.1227 1.0346,0.0144 2.098,-0.0575 3.1427,0 l 6.7367,3.1435 1.1223,-4.9397 3.8167,-2.4699 -4.0409,-6.0624 4.939,-6.5115 -5.1639,-0.89814 -0.44548,-4.7152 z"
       inkscape:connector-curvature="0" />
  </g>
  <metadata
     id="metadata3095">
    <rdf:RDF>
      <cc:Work>
        <dc:format>image/svg+xml</dc:format>
        <dc:type
           rdf:resource="http://purl.org/dc/dcmitype/StillImage" />
        <cc:license
           rdf:resource="http://creativecommons.org/licenses/publicdomain/" />
        <dc:publisher>
          <cc:Agent
             rdf:about="http://openclipart.org/">
            <dc:title>Openclipart</dc:title>
          </cc:Agent>
        </dc:publisher>
        <dc:title></dc:title>
        <dc:date>2013-09-22T06:13:15</dc:date>
        <dc:description>Red cartoon bomb</dc:description>
        <dc:source>http://openclipart.org/detail/183653/cartoon-bomb-by-purzen-183653</dc:source>
        <dc:creator>
          <cc:Agent>
            <dc:title>purzen</dc:title>
          </cc:Agent>
        </dc:creator>
        <dc:subject>
          <rdf:Bag>
            <rdf:li>bomb</rdf:li>
            <rdf:li>cartoon</rdf:li>
            <rdf:li>cherry</rdf:li>
            <rdf:li>explosive</rdf:li>
            <rdf:li>fuse</rdf:li>
            <rdf:li>game</rdf:li>
            <rdf:li>purple</rdf:li>
            <rdf:li>red</rdf:li>
            <rdf:li>shiny</rdf:li>
            <rdf:li>weapon</rdf:li>
          </rdf:Bag>
        </dc:subject>
      </cc:Work>
      <cc:License
         rdf:about="http://creativecommons.org/licenses/publicdomain/">
        <cc:permits
           rdf:resource="http://creativecommons.org/ns#Reproduction" />
        <cc:permits
           rdf:resource="http://creativecommons.org/ns#Distribution" />
        <cc:permits
           rdf:resource="http://creativecommons.org/ns#DerivativeWorks" />
      </cc:License>
    </rdf:RDF>
  </metadata>
</svg>
